# xmcd
#
# Track frame offsets:
#	150
#	22524
#	38789
#	53111
#	79386
#	98265
#	112237
#	123361
#	137178
#	149530
#	173364
#	193463
#	203980
#	225089
#	243128
#	266663
#	280702
#	302064
#
# Disc length: 4337 seconds
#
# Revision: 5
# Processed by: cddbd v1.5.2PL0 Copyright (c) Steve Scherf et al.
# Submitted via: audiograbber 1.83.01
#
DISCID=ef10ef12
DTITLE=Various Artist - Guitar Kings
DYEAR=1996
DGENRE=Blues
TTITLE0=Santana - Soul Sacrifice
TTITLE1=B.B. King - It's My Own Fault Baby
TTITLE2=Jimi Hendrix - Little Wing
TTITLE3=John Mayall - Ridin' On The L and N
TTITLE4=The Booze Brothers (Feat. Mark Knopfler) - Rock Steady Woman
TTITLE5=The Yardbirds (with Jeff Beck) - Jeff's Blues
TTITLE6=Eric Clapton and Jimmy Page - Miles Road
TTITLE7=Santana - Jingo
TTITLE8=Johnny Winter - Living In The Blues
TTITLE9=B.B. King - You're Done Lost Your Good Thing Now
TTITLE10=John Mayall - Road Show
TTITLE11=Eric Clapton - West Coast Idea
TTITLE12=Tony Joe White - Roosevelt And Ira Lee
TTITLE13=Mike Bloomfield - Hully Gully
TTITLE14=Jimi Hendrix - Voodoo Chile (Slight Return (Short Version))
TTITLE15=Eric Clapton - Draggin' my tail
TTITLE16=Johnny Winter - Going Down Slow
TTITLE17=Fleetwood Mac - The World Keeps On Turning
EXTD=YEAR: 1998 ID3G: 0
EXTT0=
EXTT1=
EXTT2=
EXTT3=
EXTT4=
EXTT5=
EXTT6=
EXTT7=
EXTT8=
EXTT9=
EXTT10=
EXTT11=
EXTT12=
EXTT13=
EXTT14=
EXTT15=
EXTT16=
EXTT17=
PLAYORDER=
